# File created by Blade
# Date/Time:  Wed Apr 08 17:24:25 2015
#---------------------------------------------------------
:version 1.10
:name HOM
:units
  mass 1.0
  length 1.000000
  angle deg
:documentation
     Acclaim Skeleton File
:root
   axis xyz
   order TX TY TZ RX RY RZ
   position 0.000000 0.000000 0.000000
   orientation 0 0 0
:bonedata
   begin
      id 1
      name Spine_dum
      direction 0.000000 1.000000 0.000000
      length 5.893853
      axis 0.0 0.0 0.0 xyz
   end
   begin
      id 2
      name LeftUpLeg_dum
      direction 1.000000 0.000000 0.000000
      length 3.697939
      axis 0.0 0.0 0.0 xyz
   end
   begin
      id 3
      name RightUpLeg_dum
      direction -1.000000 0.000000 0.000000
      length 3.697939
      axis 0.0 0.0 0.0 xyz
   end
   begin
      id 4
      name Spine
      direction 0.000000 1.000000 0.000000
      length 0.000000
      axis 0.0 0.0 0.0 xyz
      dof rx ry rz
   end
   begin
      id 5
      name Spine_dum1
      direction 0.000000 1.000000 0.000000
      length 16.447146
      axis 0.0 0.0 0.0 xyz
   end
   begin
      id 6
      name Spine_dum2
      direction 0.000000 1.000000 0.000000
      length 10.900383
      axis 0.0 0.0 0.0 xyz
   end
   begin
      id 7
      name Spine_dum3
      direction 0.000000 1.000000 0.000000
      length 10.900383
      axis 0.0 0.0 0.0 xyz
   end
   begin
      id 8
      name Head
      direction 0.000000 1.000000 0.000000
      length 4.527550
      axis 0.0 0.0 0.0 xyz
      dof rx ry rz
   end
   begin
      id 9
      name LeftShoulder
      direction 1.000000 0.000000 0.000000
      length 8.219464
      axis 0.0 0.0 -90.0 xyz
      dof rx ry rz
   end
   begin
      id 10
      name LeftArm
      direction 1.000000 0.000000 0.000000
      length 11.094937
      axis 0.0 0.0 -90.0 xyz
      dof rx ry rz
   end
   begin
      id 11
      name LeftForeArm
      direction 1.000000 0.000000 0.000000
      length 9.103875
      axis 0.0 0.0 -90.0 xyz
      dof ry rz rx
   end
   begin
      id 12
      name LeftHand
      direction 0.000000 0.000000 0.000000
      length 0.000000
      axis 0.0 0.0 -90.0 xyz
      dof rx ry rz
   end
   begin
      id 13
      name LeftHand_dum1
      direction 0.000000 0.000000 0.000000
      length 0.000000
      axis 0.0 0.0 -90.0 xyz
   end
   begin
      id 14
      name LeftHand_dum2
      direction 1.000000 0.000000 0.000000
      length 3.937000
      axis 0.0 0.0 -90.0 xyz
   end
   begin
      id 15
      name LeftHandThumb1
      direction 0.000000 0.000000 1.000000
      length 3.937000
      axis 0.0 0.0 -90.0 xyz
      dof rx rz ry
   end
   begin
      id 16
      name RightShoulder
      direction -1.000000 0.000000 0.000000
      length 8.219464
      axis 0.0 0.0 90.0 xyz
      dof rx ry rz
   end
   begin
      id 17
      name RightArm
      direction -1.000000 0.000000 0.000000
      length 11.094937
      axis 0.0 0.0 90.0 xyz
      dof rx ry rz
   end
   begin
      id 18
      name RightForeArm
      direction -1.000000 0.000000 0.000000
      length 9.103875
      axis 0.0 0.0 90.0 xyz
      dof ry rz rx
   end
   begin
      id 19
      name RightHand
      direction 0.000000 0.000000 0.000000
      length 0.000000
      axis 0.0 0.0 90.0 xyz
      dof rx ry rz
   end
   begin
      id 20
      name RightHand_dum1
      direction 0.000000 0.000000 0.000000
      length 0.000000
      axis 0.0 0.0 90.0 xyz
   end
   begin
      id 21
      name RightHand_dum2
      direction -1.000000 0.000000 0.000000
      length 3.937000
      axis 0.0 0.0 90.0 xyz
   end
   begin
      id 22
      name RightHandThumb1
      direction 0.000000 0.000000 1.000000
      length 3.937000
      axis 0.0 0.0 90.0 xyz
      dof rx rz ry
   end
   begin
      id 23
      name LeftUpLeg
      direction 0.000000 -1.000000 0.000000
      length 16.181467
      axis 0.0 0.0 0.0 xyz
      dof rx ry rz
   end
   begin
      id 24
      name LeftLeg
      direction 0.000000 -1.000000 0.000000
      length 16.501392
      axis 0.0 0.0 0.0 xyz
      dof rx ry rz
   end
   begin
      id 25
      name LeftFoot
      direction 0.000000 -0.258819 0.965926
      length 6.408245
      axis 15.0 0.0 0.0 xyz
      dof rx ry rz
   end
   begin
      id 26
      name LeftToeBase
      direction 0.000000 0.000000 1.000000
      length 2.952750
      axis 0.0 0.0 0.0 xyz
      dof rx ry rz
   end
   begin
      id 27
      name RightUpLeg
      direction 0.000000 -1.000000 0.000000
      length 16.181467
      axis 0.0 0.0 0.0 xyz
      dof rx ry rz
   end
   begin
      id 28
      name RightLeg
      direction 0.000000 -1.000000 0.000000
      length 16.501392
      axis 0.0 0.0 0.0 xyz
      dof rx ry rz
   end
   begin
      id 29
      name RightFoot
      direction 0.000000 -0.258819 0.965926
      length 6.408245
      axis 15.0 0.0 0.0 xyz
      dof rx ry rz
   end
   begin
      id 30
      name RightToeBase
      direction 0.000000 0.000000 1.000000
      length 2.952750
      axis 0.0 0.0 0.0 xyz
      dof rx ry rz
   end
:hierarchy
   begin
      root Spine_dum LeftUpLeg_dum RightUpLeg_dum
      Spine_dum Spine
      LeftUpLeg_dum LeftUpLeg
      RightUpLeg_dum RightUpLeg
      Spine Spine_dum1 Spine_dum2 Spine_dum3
      Spine_dum1 Head
      Spine_dum2 LeftShoulder
      Spine_dum3 RightShoulder
      LeftShoulder LeftArm
      LeftArm LeftForeArm
      LeftForeArm LeftHand
      LeftHand LeftHand_dum1 LeftHand_dum2
      LeftHand_dum1 LeftHandThumb1
      RightShoulder RightArm
      RightArm RightForeArm
      RightForeArm RightHand
      RightHand RightHand_dum1 RightHand_dum2
      RightHand_dum1 RightHandThumb1
      LeftUpLeg LeftLeg
      LeftLeg LeftFoot
      LeftFoot LeftToeBase
      RightUpLeg RightLeg
      RightLeg RightFoot
      RightFoot RightToeBase
   end

# File created by Blade
# Date/Time:  Wed Apr 08 17:24:36 2015
# Frame Rate: 120.000 fps
#------------------------------------------------------
:FULLY-SPECIFIED
:DEGREES
53
root 8.780970 36.302113 -0.250924 -142.296911 -87.672008 169.128732
Spine -26.445160 2.517554 -2.974367
Head 12.035342 6.587442 5.530498
LeftShoulder -4.392586 12.404372 28.670450
LeftArm 15.861646 -38.856833 -42.363293
LeftForeArm 12.644932 -0.000000 2.448842
LeftHand -12.029630 0.000000 -12.805618
LeftHandThumb1 -26.253704 0.000000 33.147579
RightShoulder -22.120380 -39.993158 -13.036055
RightArm 58.352395 48.812627 61.038701
RightForeArm 7.936426 -0.000000 -2.084859
RightHand -2.757956 -0.000000 7.988741
RightHandThumb1 -24.326973 -0.000000 -32.862282
LeftUpLeg -29.486772 14.232619 -0.052443
LeftLeg 13.790586 -0.000000 -0.000000
LeftFoot -10.018621 8.726421 -13.223938
LeftToeBase 7.129651 -0.000000 -0.000000
RightUpLeg -30.146581 -4.632728 -4.625721
RightLeg 12.466179 -0.000000 -0.000000
RightFoot -11.593816 -7.949506 18.530467
RightToeBase 9.783482 -0.000000 -0.000000
54
root 8.786390 36.303460 -0.275759 -142.974412 -87.610872 169.807079
Spine -26.432004 2.619749 -2.938624
Head 12.068390 6.689237 5.467410
LeftShoulder -4.427320 12.457845 28.637756
LeftArm 15.915424 -38.747437 -42.424181
LeftForeArm 12.573653 -0.000000 2.582902
LeftHand -11.846580 -0.000000 -12.845103
LeftHandThumb1 -26.253704 0.000000 33.147579
RightShoulder -22.115476 -39.917782 -13.065757
RightArm 58.142448 48.652501 60.802588
RightForeArm 8.020409 -0.000000 -1.999362
RightHand -2.692782 0.000000 7.997418
RightHandThumb1 -24.326973 -0.000000 -32.862282
LeftUpLeg -29.522533 14.393616 -0.061861
LeftLeg 13.829937 -0.000000 -0.000000
LeftFoot -9.967921 8.655381 -13.234680
LeftToeBase 7.144831 -0.000000 -0.000000
RightUpLeg -30.157620 -4.581373 -4.587597
RightLeg 12.445340 -0.000000 -0.000000
RightFoot -11.577522 -7.925414 18.494159
RightToeBase 9.817342 -0.000000 -0.000000
55
root 8.791929 36.304216 -0.303398 -143.367098 -87.570153 170.201082
Spine -26.411532 2.696658 -2.892074
Head 12.075764 6.797909 5.390703
LeftShoulder -4.452874 12.469599 28.603456
LeftArm 15.928779 -38.672734 -42.453795
LeftForeArm 12.571749 -0.000000 2.665950
LeftHand -11.690578 -0.000000 -12.893937
LeftHandThumb1 -26.253704 0.000000 33.147579
RightShoulder -22.137707 -39.925181 -13.066311
RightArm 58.100715 48.546148 60.686443
RightForeArm 8.036110 0.000000 -1.979626
RightHand -2.640061 -0.000000 8.111762
RightHandThumb1 -24.326973 -0.000000 -32.862282
LeftUpLeg -29.570994 14.550178 -0.072232
LeftLeg 13.884613 -0.000000 -0.000000
LeftFoot -9.911115 8.563236 -13.274414
LeftToeBase 7.099031 -0.000000 -0.000000
RightUpLeg -30.166256 -4.540457 -4.548936
RightLeg 12.428219 -0.000000 -0.000000
RightFoot -11.581498 -7.903075 18.473035
RightToeBase 9.860352 -0.000000 -0.000000
56
root 8.798229 36.305599 -0.333944 -143.857128 -87.544437 170.686168
Spine -26.387090 2.777170 -2.838081
Head 12.108164 6.901161 5.328859
LeftShoulder -4.442856 12.457334 28.577370
LeftArm 15.891117 -38.542173 -42.426435
LeftForeArm 12.524051 -0.000000 2.713297
LeftHand -11.511367 -0.000000 -13.059211
LeftHandThumb1 -26.253704 0.000000 33.147579
RightShoulder -22.132871 -39.927106 -13.088133
RightArm 58.099327 48.468579 60.649655
RightForeArm 8.142845 0.000000 -1.995918
RightHand -2.622417 -0.000000 8.039559
RightHandThumb1 -24.326973 -0.000000 -32.862282
LeftUpLeg -29.617379 14.678172 -0.051657
LeftLeg 13.947843 -0.000000 -0.000000
LeftFoot -9.847695 8.483929 -13.302370
LeftToeBase 7.055659 -0.000000 -0.000000
RightUpLeg -30.162758 -4.520467 -4.484527
RightLeg 12.402385 -0.000000 -0.000000
RightFoot -11.590498 -7.870487 18.474184
RightToeBase 9.893494 -0.000000 -0.000000
57
root 8.804247 36.306152 -0.365913 -144.177941 -87.513286 170.993359
Spine -26.348950 2.816757 -2.775800
Head 12.125300 7.036313 5.264257
LeftShoulder -4.476927 12.449443 28.544194
LeftArm 15.855766 -38.503585 -42.403975
LeftForeArm 12.754341 -0.000000 2.761126
LeftHand -11.340388 0.000000 -13.224362
LeftHandThumb1 -26.253704 0.000000 33.147579
RightShoulder -22.087445 -39.919942 -13.120761
RightArm 58.114668 48.428968 60.609752
RightForeArm 7.935659 -0.000000 -2.029270
RightHand -2.582196 -0.000000 8.217391
RightHandThumb1 -24.326973 -0.000000 -32.862282
LeftUpLeg -29.653975 14.814410 -0.042047
LeftLeg 14.007316 -0.000000 -0.000000
LeftFoot -9.783435 8.405302 -13.343694
LeftToeBase 7.029212 -0.000000 -0.000000
RightUpLeg -30.151023 -4.505100 -4.428561
RightLeg 12.378810 -0.000000 -0.000000
RightFoot -11.591346 -7.826455 18.436647
RightToeBase 9.910480 -0.000000 -0.000000
58
root 8.810831 36.307036 -0.401379 -144.806165 -87.487460 171.610756
Spine -26.309606 2.876661 -2.699764
Head 12.122712 7.173394 5.193586
LeftShoulder -4.498597 12.427633 28.510748
LeftArm 15.827867 -38.500749 -42.389192
LeftForeArm 13.044986 -0.000000 2.783914
LeftHand -11.302153 -0.000000 -13.452296
LeftHandThumb1 -26.253704 0.000000 33.147579
RightShoulder -22.061911 -39.907551 -13.165301
RightArm 58.145099 48.376284 60.621440
RightForeArm 7.817714 -0.000000 -2.026208
RightHand -2.516451 0.000000 8.240685
RightHandThumb1 -24.326973 -0.000000 -32.862282
LeftUpLeg -29.697290 14.945027 -0.005728
LeftLeg 14.078844 -0.000000 -0.000000
LeftFoot -9.722465 8.322976 -13.379683
LeftToeBase 6.988144 -0.000000 -0.000000
RightUpLeg -30.147526 -4.451331 -4.362471
RightLeg 12.364797 -0.000000 -0.000000
RightFoot -11.595654 -7.833551 18.390025
RightToeBase 9.925119 -0.000000 -0.000000
